HIERARCHY
ROOT Hips
{
 OFFSET 0.000000 0.000000 0.000000
 CHANNELS 6 Xposition Yposition Zposition Yrotation Xrotation Zrotation
 JOINT Chest
 {
  OFFSET 0.000000 10.354800 0.006500
  CHANNELS 3 Yrotation Xrotation Zrotation
  JOINT Chest2
  {
   OFFSET 0.000000 10.435800 -0.013200
   CHANNELS 3 Yrotation Xrotation Zrotation
   JOINT Chest3
   {
    OFFSET 0.000000 10.393700 0.000000
    CHANNELS 3 Yrotation Xrotation Zrotation
    JOINT Chest4
    {
     OFFSET 0.000000 10.383100 0.000000
     CHANNELS 3 Yrotation Xrotation Zrotation
     JOINT Neck
     {
      OFFSET 0.000000 15.694000 0.000000
      CHANNELS 3 Yrotation Xrotation Zrotation
      JOINT Head
      {
       OFFSET 0.000000 9.711000 -0.028000
       CHANNELS 3 Yrotation Xrotation Zrotation
       End Site
       {
        OFFSET 0.000000 18.578700 -0.014800
       }
      }
     }
     JOINT RightCollar
     {
      OFFSET -3.157200 10.367500 0.000000
      CHANNELS 3 Yrotation Xrotation Zrotation
      JOINT RightShoulder
      {
       OFFSET -14.482500 0.000000 0.000000
       CHANNELS 3 Yrotation Xrotation Zrotation
       JOINT RightElbow
       {
        OFFSET 0.000000 -31.707800 0.000000
        CHANNELS 3 Yrotation Xrotation Zrotation
        JOINT RightWrist
        {
         OFFSET 0.000000 -25.659300 0.000000
         CHANNELS 3 Yrotation Xrotation Zrotation
         End Site
         {
          OFFSET 0.000000 -18.994300 0.000000
         }
        }
       }
      }
     }
     JOINT LeftCollar
     {
      OFFSET 3.157200 10.367500 0.000000
      CHANNELS 3 Yrotation Xrotation Zrotation
      JOINT LeftShoulder
      {
       OFFSET 14.482500 0.000000 0.000000
       CHANNELS 3 Yrotation Xrotation Zrotation
       JOINT LeftElbow
       {
        OFFSET 0.000000 -31.707800 0.000000
        CHANNELS 3 Yrotation Xrotation Zrotation
        JOINT LeftWrist
        {
         OFFSET 0.000000 -25.659300 0.000000
         CHANNELS 3 Yrotation Xrotation Zrotation
         End Site
         {
          OFFSET 0.000000 -18.994300 0.000000
         }
        }
       }
      }
     }
    }
   }
  }
 }
 JOINT RightHip
 {
  OFFSET -8.365600 -0.032100 -0.003200
  CHANNELS 3 Yrotation Xrotation Zrotation
  JOINT RightKnee
  {
   OFFSET 0.000000 -43.980000 0.003100
   CHANNELS 3 Yrotation Xrotation Zrotation
   JOINT RightAnkle
   {
    OFFSET 0.000000 -42.882800 0.005200
    CHANNELS 3 Yrotation Xrotation Zrotation
    JOINT RightToe
    {
     OFFSET 0.000000 -4.915500 10.826300
     CHANNELS 3 Yrotation Xrotation Zrotation
     End Site
     {
      OFFSET 0.000000 -1.517500 6.175900
     }
    }
   }
  }
 }
 JOINT LeftHip
 {
  OFFSET 8.365600 -0.032100 -0.003200
  CHANNELS 3 Yrotation Xrotation Zrotation
  JOINT LeftKnee
  {
   OFFSET 0.000000 -43.980000 0.003100
   CHANNELS 3 Yrotation Xrotation Zrotation
   JOINT LeftAnkle
   {
    OFFSET 0.000000 -42.882800 0.005200
    CHANNELS 3 Yrotation Xrotation Zrotation
    JOINT LeftToe
    {
     OFFSET 0.000000 -4.915500 10.826300
     CHANNELS 3 Yrotation Xrotation Zrotation
     End Site
     {
      OFFSET 0.000000 -1.517500 6.175900
     }
    }
   }
  }
 }
}
MOTION
Frames: 12
Frame Time: 0.008333
93.584393 126.454551 123.109686 178.318539 -19.321347 -3.678821 -2.921255 13.673196 4.570103 -0.351773 1.138074 0.427774 -0.478255 2.102556 0.741642 -2.762823 12.139686 4.134075 -1.884993 19.603196 -2.792642 -1.380677 -4.907168 -2.549688 2.394511 6.160171 -5.394562 5.475423 -4.916794 -5.304112 -80.893572 -46.878674 123.611271 -24.782855 -22.371839 -41.191338 -1.585812 6.021636 -1.505402 5.325071 1.650425 -1.824014 84.228238 -50.499723 -138.180905 27.032519 -5.435661 44.899625 9.066877 -62.861806 2.204354 -65.601107 76.316289 -61.832228 3.842085 1.903874 -14.102811 -0.092200 -0.029355 -0.041844 -21.945952 -62.081264 15.556264 69.785423 80.278691 64.412001 -6.849239 -5.593669 -0.636762 0.045120 -0.013142 0.020482
93.583608 126.460120 123.123995 178.275217 -19.461594 -3.699836 -2.946004 13.679645 4.556876 -0.322321 1.205938 0.438700 -0.522985 2.069368 0.741462 -2.698623 12.243761 4.137957 -1.886237 19.641210 -2.811702 -1.349565 -4.910183 -2.563651 2.406480 6.125291 -5.400062 5.506269 -4.944244 -5.343861 -80.802183 -46.792449 123.525297 -24.795376 -22.430113 -41.250911 -1.624110 5.984900 -1.502202 5.328074 1.621452 -1.838686 84.220840 -50.494909 -138.137682 27.043556 -5.451024 44.831981 9.144058 -62.726364 2.261385 -65.203055 76.356011 -61.416403 3.749363 2.027453 -14.193959 -0.089320 -0.035578 -0.040533 -21.868477 -61.950520 15.511540 69.808704 80.264672 64.444593 -6.838769 -5.589599 -0.639215 0.038319 -0.009781 0.017395
93.583869 126.466168 123.138344 178.244393 -19.606737 -3.728132 -2.955922 13.723825 4.555568 -0.315437 1.237355 0.444053 -0.526184 2.086866 0.744466 -2.674461 12.298440 4.143783 -1.886163 19.658236 -2.828345 -1.316158 -4.883330 -2.586707 2.396132 6.038896 -5.397772 5.558961 -4.931515 -5.396026 -80.699568 -46.702796 123.497430 -24.824137 -22.532629 -41.352889 -1.663956 5.945274 -1.506878 5.326750 1.586111 -1.842432 84.236521 -50.502278 -138.120344 27.053171 -5.456386 44.782773 9.241823 -62.589530 2.295577 -64.796688 76.448331 -60.959453 3.581332 2.116796 -14.308108 -0.080297 -0.039487 -0.036436 -21.823783 -61.819755 15.490052 69.880135 80.256484 64.519375 -6.827328 -5.576435 -0.643714 0.027197 -0.013356 0.012346
93.583902 126.472432 123.153282 178.227824 -19.752987 -3.755708 -2.969484 13.787156 4.553481 -0.317912 1.248116 0.445353 -0.530056 2.104316 0.746425 -2.678339 12.351924 4.145561 -1.864379 19.678095 -2.849976 -1.276549 -4.846190 -2.614208 2.425759 5.995952 -5.396499 5.588898 -4.962704 -5.455847 -80.635302 -46.638141 123.447707 -24.847041 -22.566468 -41.395242 -1.646960 5.932225 -1.513522 5.284463 1.523387 -1.839441 84.288633 -50.522090 -138.137143 27.065153 -5.454195 44.746707 9.369988 -62.452351 2.291536 -64.391223 76.587124 -60.476474 3.335806 2.156595 -14.376489 -0.062841 -0.040973 -0.028515 -21.762510 -61.678247 15.447797 69.796123 80.251188 64.447446 -6.833875 -5.570015 -0.651263 0.023918 -0.004631 0.010859
93.585947 126.479999 123.166508 178.242846 -19.913626 -3.798999 -3.006015 13.862803 4.557313 -0.304980 1.299810 0.453785 -0.549996 2.081050 0.740329 -2.735190 12.397220 4.118000 -1.793340 19.711504 -2.855762 -1.246302 -4.837236 -2.616152 2.512525 5.991629 -5.376412 5.601231 -5.022631 -5.519594 -80.582748 -46.581769 123.405080 -24.897175 -22.591282 -41.416412 -1.582971 5.934103 -1.502925 5.232267 1.453949 -1.832126 84.351735 -50.547488 -138.134789 27.100057 -5.461092 44.754685 9.466515 -62.302994 2.296039 -63.986984 76.767068 -59.982248 3.035211 2.146075 -14.460820 -0.023384 -0.022263 -0.010613 -21.748761 -61.524449 15.419863 69.701537 80.263149 64.354264 -6.781482 -5.554005 -0.645366 0.009930 -0.001244 0.004508
93.586231 126.487552 123.181189 178.242188 -20.072060 -3.820470 -3.024082 13.929203 4.547284 -0.299461 1.355289 0.460859 -0.562734 2.054573 0.734349 -2.716087 12.461873 4.120784 -1.809194 19.722014 -2.877671 -1.216281 -4.827235 -2.614632 2.517085 5.964619 -5.367986 5.607734 -5.081229 -5.585247 -80.549332 -46.540503 123.373956 -24.919063 -22.599396 -41.363090 -1.678145 5.860673 -1.527988 5.246240 1.426170 -1.805945 84.428751 -50.583160 -138.128192 27.077629 -5.419480 44.684576 9.596349 -62.153021 2.278988 -63.615045 76.967890 -59.522600 2.787999 2.080526 -14.661993 -0.012918 -0.025540 -0.005863 -21.703680 -61.393825 15.380003 69.775041 80.279141 64.425175 -6.769188 -5.536844 -0.646842 0.006159 -0.008689 0.002796
93.586073 126.496175 123.194984 178.246872 -20.241542 -3.833449 -3.042602 14.001267 4.528223 -0.320661 1.303353 0.450076 -0.548736 2.136706 0.743472 -2.737354 12.516391 4.104283 -1.789917 19.748890 -2.891321 -1.192249 -4.799668 -2.622293 2.535025 5.910167 -5.343928 5.627694 -5.095386 -5.647816 -80.531018 -46.520711 123.353260 -24.915310 -22.585492 -41.311496 -1.714057 5.817134 -1.545079 5.221107 1.376411 -1.775942 84.515156 -50.626975 -138.116138 27.048616 -5.377210 44.626406 9.704473 -61.990844 2.267362 -63.352393 77.162003 -59.187182 2.551528 1.961780 -14.793455 -0.004262 -0.026121 -0.001934 -21.608502 -61.247936 15.286056 69.796802 80.289553 64.453121 -6.755888 -5.533148 -0.632994 0.003894 -0.010009 0.001768
93.585325 126.505784 123.208413 178.254876 -20.419323 -3.836332 -3.061013 14.075743 4.499427 -0.328640 1.293226 0.445653 -0.547508 2.177694 0.745767 -2.771903 12.567015 4.062003 -1.754855 19.784336 -2.883450 -1.179816 -4.768153 -2.626094 2.569357 5.860197 -5.301628 5.629406 -5.102673 -5.696769 -80.523422 -46.524470 123.340174 -24.912839 -22.560359 -41.260918 -1.726831 5.793308 -1.537908 5.177095 1.308683 -1.746661 84.600063 -50.674429 -138.096356 27.045429 -5.350255 44.603211 9.762875 -61.818354 2.272929 -63.217004 77.337381 -59.008514 2.372741 1.797001 -14.875682 -0.002331 -0.023067 -0.001058 -21.484148 -61.098770 15.161260 69.831496 80.303913 64.495258 -6.741714 -5.528766 -0.627064 0.001964 -0.011537 0.000892
93.583688 126.516232 123.221976 178.260477 -20.602638 -3.825791 -3.076096 14.149023 4.458647 -0.330938 1.305021 0.444510 -0.545335 2.237979 0.751902 -2.779797 12.596555 4.048924 -1.749523 19.797757 -2.886332 -1.197743 -4.704318 -2.666224 2.561368 5.702818 -5.301915 5.636718 -5.016140 -5.715646 -80.472680 -46.502722 123.291617 -24.846654 -22.536445 -41.197890 -1.743894 5.776411 -1.541473 5.100040 1.212147 -1.734383 84.671624 -50.721141 -138.063338 27.047707 -5.324440 44.582478 9.767759 -61.637801 2.297362 -63.158849 77.505456 -58.945293 2.253384 1.584139 -14.912273 -0.006878 -0.017806 -0.003122 -21.332160 -60.944428 15.007654 69.860769 80.318273 64.530517 -6.736166 -5.528476 -0.619927 -0.001601 -0.011831 -0.000727
93.585167 126.527743 123.235896 178.269450 -20.790525 -3.826674 -3.087551 14.221727 4.427601 -0.333802 1.343918 0.447325 -0.545371 2.275521 0.755737 -2.796566 12.614497 4.011731 -1.729759 19.824788 -2.866621 -1.217427 -4.660282 -2.689434 2.578994 5.597029 -5.284775 5.623020 -4.959796 -5.724433 -80.432452 -46.491345 123.250484 -24.769904 -22.512279 -41.135309 -1.798730 5.724423 -1.561257 5.073884 1.156305 -1.688819 84.727090 -50.761163 -138.016866 27.049805 -5.300150 44.561068 9.918781 -61.471505 2.234108 -63.448016 77.615975 -59.169476 2.150450 1.341317 -14.887256 0.007952 -0.022480 0.003609 -21.195802 -60.780127 14.876652 69.874230 80.339677 64.550704 -6.741872 -5.529968 -0.613347 -0.004884 -0.011963 -0.002217
93.585815 126.539800 123.250400 178.286671 -20.978983 -3.819777 -3.101425 14.288681 4.386945 -0.336046 1.355461 0.445230 -0.556788 2.230112 0.737812 -2.799949 12.743291 3.988846 -1.730473 19.856141 -2.862833 -1.224379 -4.628618 -2.689765 2.594251 5.522488 -5.267096 5.600399 -4.920435 -5.719818 -80.460447 -46.536331 123.252127 -24.756606 -22.484297 -41.072962 -1.852690 5.671274 -1.581789 5.046804 1.105272 -1.635098 84.766133 -50.792100 -137.962184 27.054158 -5.277676 44.538903 10.036886 -61.306443 2.157447 -63.864042 77.715847 -59.548382 2.101386 1.065997 -14.792379 0.009636 -0.023843 0.004374 -21.044567 -60.616109 14.728128 69.853951 80.375354 64.539545 -6.743491 -5.534785 -0.612349 -0.002908 -0.012348 -0.001320
93.585034 126.552842 123.263741 178.309649 -21.176789 -3.801736 -3.115257 14.358845 4.335649 -0.337800 1.339181 0.438249 -0.561978 2.252605 0.732393 -2.817632 12.832485 3.950752 -1.767624 19.872574 -2.913444 -1.203519 -4.584493 -2.646226 2.610402 5.452513 -5.250606 5.571982 -4.872969 -5.700029 -80.569977 -46.648591 123.310257 -24.829750 -22.453665 -41.018209 -1.871862 5.652613 -1.571293 4.994231 1.026131 -1.603981 84.782996 -50.814500 -137.898585 27.063906 -5.258721 44.515490 10.150152 -61.134352 2.053017 -64.467163 77.797524 -60.130175 2.106495 0.754787 -14.643007 0.003659 -0.021305 0.001661 -20.868169 -60.440552 14.548450 69.896912 80.416400 64.581465 -6.746279 -5.560961 -0.600054 -0.004200 -0.008652 -0.001907
